<?xml version="1.0" standalone="no"?>
<!DOCTYPE svg PUBLIC "-//W3C//DTD SVG 20010904//EN"
 "http://www.w3.org/TR/2001/REC-SVG-20010904/DTD/svg10.dtd">
<svg version="1.0" xmlns="http://www.w3.org/2000/svg"
 width="700.000000pt" height="700.000000pt" viewBox="0 0 700.000000 700.000000"
 preserveAspectRatio="xMidYMid meet">
<metadata>
Created by potrace 1.11, written by Peter Selinger 2001-2013
</metadata>
<g transform="translate(0.000000,700.000000) scale(0.100000,-0.100000)"
fill="#000000" stroke="none">
<path d="M875 6349 c0 -116 -2 -214 -5 -218 -3 -4 -99 -7 -215 -6 l-210 0 -3
-2407 -2 -2408 217 -2 218 -3 0 -213 c-1 -140 3 -212 10 -213 5 -1 102 -2 215
-3 l205 -1 5 -220 5 -220 430 0 430 0 5 220 5 220 215 0 215 0 1 210 c1 116 2
213 3 218 0 4 99 7 219 7 l217 0 0 1310 c0 867 -3 1310 -10 1311 -5 1 -299 2
-652 3 -564 1 -642 -1 -645 -14 -2 -8 -4 -204 -3 -435 l0 -420 218 -3 217 -2
0 -875 0 -875 -435 0 -435 0 2 2187 3 2188 430 0 430 0 3 -217 2 -218 438 0
437 0 -1 433 c-1 237 -2 434 -3 437 0 3 -99 5 -219 5 l-217 0 0 215 0 215
-870 3 -870 2 0 -211z"/>
<path d="M3490 3497 l0 -3062 218 0 217 0 0 217 c0 120 2 219 5 219 3 1 100 2
215 3 l210 1 3 218 2 217 218 0 217 0 0 217 0 218 218 3 217 2 0 -220 0 -220
217 -2 218 -3 1 -210 c1 -116 2 -212 3 -215 0 -3 99 -5 219 -5 l217 1 0 -221
0 -220 218 0 217 0 0 3062 0 3063 -438 0 -437 0 0 -1747 0 -1748 -217 -3 -218
-2 0 437 0 438 -217 0 -218 0 0 -435 0 -435 -218 -3 -217 -2 0 1750 0 1750
-435 0 -435 0 0 -3063z"/>
</g>
</svg>
